<svg width="136" height="42" viewBox="0 0 136 42" fill="none" xmlns="http://www.w3.org/2000/svg">
<path d="M48 20C48 8.95431 56.9543 0 68 0C79.0457 0 88 8.95431 88 20V21C88 32.0457 79.0457 41 68 41C56.9543 41 48 32.0457 48 21V20Z" fill="#DDF0A7"/>
<path d="M76.9737 15.7174C76.5093 16.3369 75.9479 16.8773 75.3112 17.3178C75.3112 17.4796 75.3112 17.6414 75.3112 17.8123C75.3163 20.7511 74.1424 23.5691 72.0527 25.6345C69.9629 27.6999 67.1321 28.8399 64.1949 28.7989C62.4968 28.8046 60.8205 28.4169 59.2973 27.6661C59.2151 27.6302 59.1622 27.549 59.1625 27.4593V27.3604C59.1625 27.2313 59.2671 27.1267 59.3961 27.1267C61.0653 27.0716 62.6749 26.4929 63.9972 25.4724C62.4864 25.4419 61.127 24.5469 60.5015 23.1707C60.4699 23.0956 60.4797 23.0093 60.5274 22.9432C60.5751 22.8771 60.6539 22.8407 60.7351 22.8471C61.1943 22.8932 61.658 22.8505 62.1011 22.7212C60.4332 22.375 59.1801 20.9904 59.0007 19.2957C58.9943 19.2144 59.0308 19.1357 59.0969 19.0879C59.1629 19.0402 59.2491 19.0303 59.3242 19.062C59.7718 19.2595 60.2549 19.3635 60.7441 19.3676C59.2827 18.4085 58.6515 16.5841 59.2074 14.9262C59.2648 14.7651 59.4027 14.6461 59.5704 14.6129C59.738 14.5798 59.9108 14.6373 60.0252 14.7644C61.9972 16.8633 64.7069 18.114 67.5828 18.2528C67.5092 17.9589 67.473 17.6568 67.475 17.3537C67.5019 15.7647 68.4851 14.3492 69.9643 13.7699C71.4434 13.1905 73.1258 13.562 74.2239 14.7104C74.9723 14.5679 75.6959 14.3165 76.3716 13.9642C76.4211 13.9333 76.4839 13.9333 76.5334 13.9642C76.5643 14.0137 76.5643 14.0765 76.5334 14.126C76.2061 14.8755 75.6532 15.5041 74.9518 15.9242C75.566 15.853 76.1694 15.7081 76.7491 15.4926C76.7979 15.4594 76.862 15.4594 76.9108 15.4926C76.9517 15.5113 76.9823 15.5471 76.9944 15.5904C77.0065 15.6337 76.9989 15.6802 76.9737 15.7174Z" fill="#162E3C"/>
<path d="M0 20C0 8.95431 8.95431 0 20 0C31.0457 0 40 8.95431 40 20V21C40 32.0457 31.0457 41 20 41C8.95431 41 0 32.0457 0 21V20Z" fill="#DDF0A7"/>
<path fill-rule="evenodd" clip-rule="evenodd" d="M13 12H27C28.1046 12 29 12.8954 29 14V28C29 29.1046 28.1046 30 27 30H13C11.8954 30 11 29.1046 11 28V14C11 12.8954 11.8954 12 13 12ZM16 27C16.2761 27 16.5 26.7761 16.5 26.5V19.5C16.5 19.2239 16.2761 19 16 19H14.5C14.2239 19 14 19.2239 14 19.5V26.5C14 26.7761 14.2239 27 14.5 27H16ZM15.25 18C14.4216 18 13.75 17.3284 13.75 16.5C13.75 15.6716 14.4216 15 15.25 15C16.0784 15 16.75 15.6716 16.75 16.5C16.75 17.3284 16.0784 18 15.25 18ZM25.5 27C25.7761 27 26 26.7761 26 26.5V21.9C26.0325 20.3108 24.8576 18.9545 23.28 18.76C22.177 18.6593 21.1083 19.1744 20.5 20.1V19.5C20.5 19.2239 20.2761 19 20 19H18.5C18.2239 19 18 19.2239 18 19.5V26.5C18 26.7761 18.2239 27 18.5 27H20C20.2761 27 20.5 26.7761 20.5 26.5V22.75C20.5 21.9216 21.1716 21.25 22 21.25C22.8284 21.25 23.5 21.9216 23.5 22.75V26.5C23.5 26.7761 23.7239 27 24 27H25.5Z" fill="#162E3C"/>
<path d="M96 20C96 8.95431 104.954 0 116 0C127.046 0 136 8.95431 136 20V21C136 32.0457 127.046 41 116 41C104.954 41 96 32.0457 96 21V20Z" fill="#DDF0A7"/>
<path d="M120.5 15H117.5C116.948 15 116.5 15.4477 116.5 16V19H120.5C120.614 18.9975 120.722 19.0504 120.789 19.1419C120.857 19.2334 120.876 19.352 120.84 19.46L120.1 21.66C120.032 21.8619 119.843 21.9984 119.63 22H116.5V29.5C116.5 29.7761 116.276 30 116 30H113.5C113.224 30 113 29.7761 113 29.5V22H111.5C111.224 22 111 21.7761 111 21.5V19.5C111 19.2239 111.224 19 111.5 19H113V16C113 13.7909 114.791 12 117 12H120.5C120.776 12 121 12.2239 121 12.5V14.5C121 14.7761 120.776 15 120.5 15Z" fill="#162E3C"/>
</svg>
